<svg width="24" height="24" viewBox="0 0 24 24" fill="none" xmlns="http://www.w3.org/2000/svg">
<g clip-path="url(#clip0_488_219)">
<path d="M12 24.0003C12.7956 24.0003 13.5587 23.6843 14.1213 23.1217C14.6839 22.559 15 21.796 15 21.0003H9C9 21.796 9.31607 22.559 9.87868 23.1217C10.4413 23.6843 11.2044 24.0003 12 24.0003ZM13.4925 1.64884C13.5134 1.44027 13.4904 1.22962 13.4249 1.0305C13.3595 0.831366 13.253 0.64817 13.1124 0.492723C12.9717 0.337275 12.8001 0.213028 12.6085 0.127993C12.4169 0.0429577 12.2096 -0.000976563 12 -0.000976562C11.7904 -0.000976563 11.5831 0.0429577 11.3915 0.127993C11.1999 0.213028 11.0283 0.337275 10.8876 0.492723C10.747 0.64817 10.6405 0.831366 10.5751 1.0305C10.5096 1.22962 10.4866 1.44027 10.5075 1.64884C8.81208 1.99369 7.28793 2.91388 6.19315 4.25359C5.09836 5.5933 4.50022 7.2702 4.5 9.00034C4.5 10.6473 3.75 18.0003 1.5 19.5003H22.5C20.25 18.0003 19.5 10.6473 19.5 9.00034C19.5 5.37034 16.92 2.34034 13.4925 1.64884Z" fill="#F8F9FA"/>
</g>
<defs>
<clipPath id="clip0_488_219">
<rect width="24" height="24" fill="white"/>
</clipPath>
</defs>
</svg>
