<svg width="30" height="30" viewBox="0 0 30 30" fill="none" xmlns="http://www.w3.org/2000/svg">
<g clip-path="url(#clip0_795_700)">
<path fill-rule="evenodd" clip-rule="evenodd" d="M4.6875 21.5625C4.6875 21.3139 4.83117 21.0754 5.0869 20.8996C5.34263 20.7238 5.68948 20.625 6.05114 20.625H33.3239C33.6855 20.625 34.0324 20.7238 34.2881 20.8996C34.5438 21.0754 34.6875 21.3139 34.6875 21.5625C34.6875 21.8111 34.5438 22.0496 34.2881 22.2254C34.0324 22.4012 33.6855 22.5 33.3239 22.5H6.05114C5.68948 22.5 5.34263 22.4012 5.0869 22.2254C4.83117 22.0496 4.6875 21.8111 4.6875 21.5625ZM4.6875 14.0625C4.6875 13.8139 4.83117 13.5754 5.0869 13.3996C5.34263 13.2238 5.68948 13.125 6.05114 13.125H33.3239C33.6855 13.125 34.0324 13.2238 34.2881 13.3996C34.5438 13.5754 34.6875 13.8139 34.6875 14.0625C34.6875 14.3111 34.5438 14.5496 34.2881 14.7254C34.0324 14.9012 33.6855 15 33.3239 15H6.05114C5.68948 15 5.34263 14.9012 5.0869 14.7254C4.83117 14.5496 4.6875 14.3111 4.6875 14.0625ZM4.6875 6.5625C4.6875 6.31386 4.83117 6.0754 5.0869 5.89959C5.34263 5.72377 5.68948 5.625 6.05114 5.625H33.3239C33.6855 5.625 34.0324 5.72377 34.2881 5.89959C34.5438 6.0754 34.6875 6.31386 34.6875 6.5625C34.6875 6.81114 34.5438 7.0496 34.2881 7.22541C34.0324 7.40123 33.6855 7.5 33.3239 7.5H6.05114C5.68948 7.5 5.34263 7.40123 5.0869 7.22541C4.83117 7.0496 4.6875 6.81114 4.6875 6.5625Z" fill="#F8F9FA"/>
</g>
<defs>
<clipPath id="clip0_795_700">
<rect width="30" height="30" fill="white"/>
</clipPath>
</defs>
</svg>
