<svg width="45" height="46" viewBox="0 0 45 46" fill="none" xmlns="http://www.w3.org/2000/svg">
<path fill-rule="evenodd" clip-rule="evenodd" d="M1.35995 19.3209L18.9389 1.53328C20.7867 -0.335314 23.8088 -0.335314 25.6559 1.53328L43.2348 19.3209C45.0819 21.1899 45.0819 24.2482 43.2341 26.1172L25.6551 43.9048C23.8081 45.7745 20.7852 45.7745 18.9374 43.9048L1.35844 26.118C-0.488619 24.249 -0.488619 21.1902 1.35844 19.3209H1.35919H1.35995ZM3.11138 21.075L20.6737 3.30437C21.5668 2.40069 23.0302 2.40069 23.9233 3.30437L41.4857 21.075C42.3788 21.9786 42.3788 23.4591 41.4849 24.3639L23.9226 42.133C23.0295 43.0367 21.5668 43.0367 20.673 42.133L3.111 24.3639C2.21714 23.4595 2.21714 21.979 3.111 21.075H3.11176H3.11138Z" fill="#00C996"/>
<path d="M22.1814 26.926C22.492 27.2405 22.6474 27.5678 22.6474 27.9091C22.6474 28.2764 22.5053 28.5973 22.2203 28.8721C21.9353 29.148 21.6107 29.286 21.2478 29.286C20.9115 29.286 20.5739 29.1416 20.2376 28.8528L13.5504 22.2836C13.1362 21.9427 12.9287 21.5757 12.9287 21.1827C12.9287 20.7359 13.1487 20.3175 13.589 19.9237L20.3139 13.3946C20.6246 13.0536 20.9878 12.8828 21.402 12.8828C21.7384 12.8828 22.0374 13.0079 22.2959 13.2566C22.5552 13.5068 22.6852 13.8012 22.6852 14.141C22.6852 14.4555 22.5295 14.7964 22.2188 15.1634L15.9599 21.1422L22.1795 26.9245L22.181 26.9253L22.1814 26.926Z" fill="#00C996"/>
<path d="M22.4151 30.1944C22.1044 30.5096 21.9487 30.8369 21.9487 31.1767C21.9487 31.5448 22.0908 31.8653 22.3758 32.1397C22.6608 32.4156 22.9847 32.5535 23.3475 32.5535C23.6839 32.5535 24.0214 32.4092 24.3585 32.1196L31.0449 25.552C31.4591 25.2103 31.6674 24.8441 31.6674 24.451C31.6674 24.005 31.4474 23.5859 31.0056 23.192L24.2807 16.6621C23.97 16.3212 23.6068 16.1504 23.1925 16.1504C22.8562 16.1504 22.5572 16.2755 22.2994 16.5242C22.0394 16.7729 21.9102 17.0681 21.9102 17.4086C21.9102 17.7231 22.0659 18.0643 22.3765 18.431L28.6354 24.4098L22.4159 30.1921L22.4166 30.1928L22.4151 30.1944Z" fill="#00C996"/>
</svg>
