<svg width="30" height="30" viewBox="0 0 30 30" fill="none" xmlns="http://www.w3.org/2000/svg">
<g clip-path="url(#clip0_488_317)">
<path d="M25.0051 23.1938C23.6738 21.0487 20.7432 18.75 14.7526 18.75C8.76194 18.75 5.83319 21.0469 4.50006 23.1938C5.72834 24.7336 7.28803 25.9766 9.06308 26.8304C10.8381 27.6841 12.7829 28.1267 14.7526 28.125C16.7223 28.1267 18.667 27.6841 20.442 26.8304C22.2171 25.9766 23.7768 24.7336 25.0051 23.1938Z" fill="#F8F9FA"/>
<path fill-rule="evenodd" clip-rule="evenodd" d="M15.375 16.875C16.8668 16.875 18.2976 16.2824 19.3525 15.2275C20.4074 14.1726 21 12.7418 21 11.25C21 9.75816 20.4074 8.32742 19.3525 7.27252C18.2976 6.21763 16.8668 5.625 15.375 5.625C13.8832 5.625 12.4524 6.21763 11.3975 7.27252C10.3426 8.32742 9.75 9.75816 9.75 11.25C9.75 12.7418 10.3426 14.1726 11.3975 15.2275C12.4524 16.2824 13.8832 16.875 15.375 16.875Z" fill="#F8F9FA"/>
<path fill-rule="evenodd" clip-rule="evenodd" d="M15 1.875C11.519 1.875 8.18064 3.25781 5.71922 5.71922C3.25781 8.18064 1.875 11.519 1.875 15C1.875 18.481 3.25781 21.8194 5.71922 24.2808C8.18064 26.7422 11.519 28.125 15 28.125C18.481 28.125 21.8194 26.7422 24.2808 24.2808C26.7422 21.8194 28.125 18.481 28.125 15C28.125 11.519 26.7422 8.18064 24.2808 5.71922C21.8194 3.25781 18.481 1.875 15 1.875ZM0 15C0 11.0218 1.58035 7.20644 4.3934 4.3934C7.20644 1.58035 11.0218 0 15 0C18.9782 0 22.7936 1.58035 25.6066 4.3934C28.4196 7.20644 30 11.0218 30 15C30 18.9782 28.4196 22.7936 25.6066 25.6066C22.7936 28.4196 18.9782 30 15 30C11.0218 30 7.20644 28.4196 4.3934 25.6066C1.58035 22.7936 0 18.9782 0 15Z" fill="#F8F9FA"/>
</g>
<defs>
<clipPath id="clip0_488_317">
<rect width="30" height="30" fill="white"/>
</clipPath>
</defs>
</svg>
