<?xml version="1.0" encoding="UTF-8"?>
<!DOCTYPE svg PUBLIC "-//W3C//DTD SVG 1.1//EN" "http://www.w3.org/Graphics/SVG/1.1/DTD/svg11.dtd">
<!-- Creator: CorelDRAW 2021.5 -->
<svg xmlns="http://www.w3.org/2000/svg" xml:space="preserve" width="60mm" height="12mm" version="1.1" style="shape-rendering:geometricPrecision; text-rendering:geometricPrecision; image-rendering:optimizeQuality; fill-rule:evenodd; clip-rule:evenodd"
viewBox="0 0 6000 1200"
 xmlns:xlink="http://www.w3.org/1999/xlink"
 xmlns:xodm="http://www.corel.com/coreldraw/odm/2003">
 <defs>
  <style type="text/css">
   <![CDATA[
    .fil0 {fill:#00C996}
    .fil1 {fill:#00C996;fill-rule:nonzero}
    .fil2 {fill:white;fill-rule:nonzero}
   ]]>
  </style>
 </defs>
 <g id="Слой_x0020_1">
  <metadata id="CorelCorpID_0Corel-Layer"/>
  <g id="_1943673348096">
   <path class="fil0" d="M35.98 511.21l465.11 -470.63c48.89,-49.44 128.85,-49.44 177.72,0l465.11 470.63c48.87,49.45 48.87,130.37 -0.02,179.82l-465.11 470.63c-48.87,49.47 -128.85,49.47 -177.74,0l-465.11 -470.61c-48.87,-49.45 -48.87,-130.38 0,-179.84l0.02 0 0.02 0zm46.34 46.41l464.67 -470.18c23.63,-23.91 62.35,-23.91 85.98,0l464.67 470.18c23.63,23.91 23.63,63.08 -0.02,87.02l-464.67 470.14c-23.63,23.91 -62.33,23.91 -85.98,0l-464.66 -470.14c-23.65,-23.93 -23.65,-63.1 0,-87.02l0.02 0 -0.01 0z"/>
   <path class="fil1" d="M1763.18 369.35c0,-5.31 0.85,-10.11 2.5,-14.29 1.7,-4.33 4.29,-8 7.73,-10.98 3.31,-2.91 6.99,-5.09 11.06,-6.52 4.05,-1.44 8.39,-2.16 13.06,-2.16 4.4,0 8.6,0.74 12.53,2.17 3.93,1.46 7.52,3.65 10.81,6.5 6.81,5.94 10.23,14.12 10.23,24.5l0 260.62c0,24.54 -2.8,47.36 -8.36,68.45 -5.56,21.14 -13.95,40.55 -25.11,58.19 -11.12,17.54 -23.95,32.93 -38.45,46.16 -14.52,13.21 -30.76,24.25 -48.66,33.12 -17.86,8.83 -36.26,15.46 -55.2,19.87 -18.98,4.4 -38.51,6.64 -58.55,6.64 -20.06,0 -39.59,-2.21 -58.57,-6.64 -18.9,-4.39 -37.34,-11.02 -55.18,-19.87 -17.94,-8.89 -34.16,-19.91 -48.66,-33.1 -14.52,-13.21 -27.34,-28.6 -38.45,-46.16 -11.15,-17.62 -19.55,-37 -25.11,-58.17 -5.56,-21.1 -8.34,-43.92 -8.34,-68.45l0 -262.98c0,-4.86 0.85,-9.23 2.55,-13.08 1.74,-3.95 4.39,-7.3 7.86,-10.04 3.29,-2.57 6.88,-4.54 10.78,-5.78 3.86,-1.29 7.98,-1.95 12.36,-1.95 4.63,0 8.96,0.68 12.99,2.04 4.1,1.36 7.79,3.44 11.04,6.14 3.46,2.87 6.07,6.3 7.77,10.25 1.7,3.89 2.55,8.32 2.55,13.18l0 262.21c0,17.71 1.95,34.1 5.88,49.17 3.89,14.99 9.74,28.73 17.51,41.17 7.81,12.46 16.83,23.42 27.09,32.84 10.25,9.41 21.72,17.3 34.41,23.65 12.76,6.37 25.94,11.19 39.51,14.39 13.55,3.19 27.56,4.78 42.01,4.78 28.83,0 56.01,-6.39 81.54,-19.19 12.68,-6.35 24.18,-14.24 34.41,-23.65 10.27,-9.41 19.3,-20.4 27.07,-32.84 7.79,-12.46 13.63,-26.16 17.52,-41.17 3.89,-15.07 5.86,-31.44 5.86,-49.17l0 -259.86 0.02 0.02 -0.01 -0.01z"/>
   <path class="fil1" d="M2159.25 341.71c33.9,0 65.16,6.9 93.82,20.76 28.66,13.84 50.17,33.63 64.5,59.32l0 -196.8c0,-10.55 3.59,-18.94 10.76,-25.22 7.16,-6.28 15.63,-9.4 25.41,-9.4 9.77,0 18.09,3.14 24.92,9.4 6.84,6.28 10.27,14.65 10.27,25.22l0 591.37c0,10.57 -3.25,18.96 -9.75,25.22 -6.52,6.26 -15.31,9.4 -26.39,9.4 -22.16,0 -33.23,-11.55 -33.23,-34.61l0 -40.55c-15.63,29.02 -38.11,50.44 -67.41,64.28 -29.32,13.86 -60.27,20.78 -92.88,20.78 -46.24,0 -88.28,-10.38 -126.09,-31.14 -37.77,-20.78 -67.92,-50.95 -90.38,-90.5 -22.48,-39.57 -33.74,-87.04 -33.74,-142.41 0,-37.58 8.32,-76 24.94,-115.22 16.62,-39.23 43.65,-72.37 81.12,-99.38 37.47,-27.03 85.51,-40.55 144.15,-40.55l0.04 0.04 -0.06 -0.01zm5.84 450.95c43.67,-2.65 80,-17.47 108.97,-44.5 29,-27.05 43.5,-62.95 43.5,-107.81l0 -78.11c0,-42.86 -14.65,-78.45 -43.99,-106.81 -29.3,-28.36 -66.45,-43.5 -111.4,-45.5 -44.97,0 -80.95,10.06 -108,30.17 -27.05,20.11 -46.09,44.33 -57.17,72.69 -11.1,28.34 -16.64,55.37 -16.64,81.08 0,47.45 9.77,86.03 29.3,115.7 19.57,29.66 43.5,50.93 71.86,63.78 28.34,12.86 56.18,19.28 83.56,19.28l0.02 0.02 -0.01 0.01z"/>
   <path class="fil1" d="M2457.83 386.33c-1.36,-2.72 -2.02,-6.79 -2.02,-12.16 0,-10.13 4.03,-18.56 12.02,-25.33 8,-6.75 17.34,-10.13 28.04,-10.13 6.67,0 12.84,1.68 18.53,5.07 5.67,3.38 9.85,8.45 12.51,15.22l191.3 386.13 193.28 -387.13c2.68,-6.09 6.84,-10.81 12.53,-14.2 5.67,-3.38 11.87,-5.07 18.55,-5.07 9.36,0 17.86,2.87 25.54,8.6 7.69,5.75 11.53,13.37 11.53,22.82 0,3.37 -1,7.75 -3.02,13.16l-226.34 455.03c-3.33,7.43 -8.2,13.16 -14.52,17.22 -6.35,4.06 -12.87,6.09 -19.53,6.09 -12.68,0 -23.38,-7.41 -32.04,-22.29l-226.34 -452.99 -0.02 -0.02 0 -0.02z"/>
   <path class="fil1" d="M586.88 712.43c8.22,8.32 12.33,16.98 12.33,26.01 0,9.72 -3.76,18.21 -11.3,25.48 -7.54,7.3 -16.13,10.95 -25.73,10.95 -8.9,0 -17.83,-3.82 -26.73,-11.46l-176.93 -173.81c-10.96,-9.02 -16.45,-18.73 -16.45,-29.13 0,-11.82 5.82,-22.89 17.47,-33.31l177.93 -172.75c8.22,-9.02 17.83,-13.54 28.79,-13.54 8.9,0 16.81,3.31 23.65,9.89 6.86,6.62 10.3,14.41 10.3,23.4 0,8.32 -4.12,17.34 -12.34,27.05l-165.6 158.19 164.56 152.99 0.04 0.02 0.01 0.02z"/>
   <path class="fil1" d="M593.06 798.9c-8.22,8.34 -12.34,17 -12.34,25.99 0,9.74 3.76,18.22 11.3,25.48 7.54,7.3 16.11,10.95 25.71,10.95 8.9,0 17.83,-3.82 26.75,-11.48l176.91 -173.77c10.96,-9.04 16.47,-18.73 16.47,-29.13 0,-11.8 -5.82,-22.89 -17.51,-33.31l-177.93 -172.77c-8.22,-9.02 -17.83,-13.54 -28.79,-13.54 -8.9,0 -16.81,3.31 -23.63,9.89 -6.88,6.58 -10.3,14.39 -10.3,23.4 0,8.32 4.12,17.35 12.34,27.05l165.6 158.19 -164.56 152.99 0.02 0.02 -0.04 0.04z"/>
  </g>
  <path class="fil2" d="M3803.06 815.8c0,45.82 -10.47,84.92 -31.4,117.32 -20.95,32.4 -49.59,56.77 -85.9,73.14 -36.32,16.35 -77.06,24.54 -122.22,24.54 -39.26,0 -73.78,-4.92 -103.58,-14.73 -29.77,-9.81 -57.43,-26.5 -82.95,-50.08 -4.57,-4.57 -6.86,-9.17 -6.86,-13.74 0,-4.57 1.63,-8.19 4.92,-10.79 3.27,-2.61 7.2,-3.91 11.78,-3.91 5.24,0 9.49,1.3 12.76,3.91 28.15,21.61 54.16,36.33 78.06,44.18 23.9,7.86 52.52,11.78 85.9,11.78 37.3,0 71.5,-6.71 102.6,-20.11 31.1,-13.42 55.96,-33.88 74.62,-61.36 18.66,-27.49 27.98,-60.87 27.98,-100.14l0 -91.29c-15.71,37.32 -40.74,66.09 -75.11,86.39 -34.37,20.28 -72.48,30.44 -114.37,30.44 -44.5,0 -86.07,-9.81 -124.68,-29.45 -38.62,-19.64 -69.7,-48.6 -93.28,-86.89 -23.56,-38.28 -35.33,-83.94 -35.33,-136.94 0,-56.94 13.42,-107.17 40.25,-150.69 26.83,-43.54 65.45,-75.75 115.85,-96.72 29.45,-12.44 60.53,-18.66 93.26,-18.66 42.54,0 83.12,11.46 121.73,34.37 34.69,22.91 58.59,52.03 71.67,87.38l0 -97.19c0,-11.8 5.56,-17.68 16.69,-17.68 5.24,0 9.49,1.64 12.76,4.92 3.27,3.29 4.92,7.52 4.92,12.76l0 469.25 -0.07 -0.01zm-136.45 -436.87c-32.72,-15.71 -65.79,-23.23 -99.15,-22.57 -46.47,3.29 -86.72,18 -120.76,44.18 -29.45,22.91 -51.21,50.4 -65.28,82.46 -14.07,32.06 -21.12,66.43 -21.12,103.09 0,41.23 8.51,78.55 25.52,111.92 17.01,33.39 42.04,59.89 75.11,79.51 33.05,19.64 72.48,29.45 118.3,29.45 35.99,0 68.4,-8.19 97.19,-24.56 28.79,-16.35 51.36,-38.28 67.74,-65.77 16.35,-27.49 24.54,-57.6 24.54,-90.33l0 -85.41c0,-35.99 -8.85,-68.08 -26.5,-96.21 -17.68,-28.15 -42.88,-50.08 -75.58,-65.79l-0.01 0.03z"/>
  <path id="_1" class="fil2" d="M3997.44 457.46c10.47,-37.3 32.4,-67.56 65.79,-90.82 33.39,-23.23 70.68,-34.84 111.92,-34.84 11.78,0 17.68,5.56 17.68,16.69 0,11.13 -5.9,16.69 -17.68,16.69 -58.91,0 -103.26,21.44 -133.03,64.29 -29.77,42.88 -44.67,96.7 -44.67,161.5l0 221.86c0,5.24 -1.63,9.49 -4.9,12.76 -3.29,3.27 -7.2,4.92 -11.8,4.92 -5.24,0 -9.49,-1.64 -12.76,-4.92 -3.27,-3.27 -4.92,-7.52 -4.92,-12.76l0 -464.35c0,-4.57 1.64,-8.51 4.92,-11.78 3.27,-3.27 7.52,-4.92 12.76,-4.92 4.59,0 8.51,1.64 11.8,4.92 3.27,3.27 4.9,7.2 4.9,11.78l0 108.97 -0.01 0.01z"/>
  <path id="_2" class="fil2" d="M4495.17 841.32c-39.26,0 -75.58,-7.52 -108.97,-22.57 -33.39,-15.07 -62.18,-36.66 -86.39,-64.8 -39.26,-48.43 -58.91,-105.7 -58.91,-171.8 0,-37.32 7.2,-73.29 21.61,-107.98 14.41,-34.69 35.18,-64.63 62.35,-89.83 27.17,-25.2 59.08,-43.03 95.71,-53.5 22.25,-5.9 47.13,-8.85 74.62,-8.85 24.22,0 48.75,2.95 73.63,8.85 51.7,14.41 93.6,43.2 125.66,86.39 32.06,43.2 50.4,91.95 54.97,146.28 3.93,74.62 -15.71,138.1 -58.91,190.44 -24.22,28.15 -53.03,49.74 -86.39,64.8 -33.37,15.05 -69.7,22.57 -108.97,22.57l-0.01 0zm62.84 -477.11c-20.95,-5.24 -42.21,-7.86 -63.8,-7.86 -20.28,0 -40.89,2.63 -61.86,7.86 -47.77,13.08 -85.73,40.57 -113.88,82.46 -28.15,41.89 -42.21,88.36 -42.21,139.4 0,26.83 4.25,52.86 12.76,78.06 8.51,25.18 21.27,47.94 38.28,68.23 20.28,24.22 45.16,42.86 74.62,55.96 29.45,13.08 60.53,19.64 93.26,19.64 33.39,0 64.96,-6.54 94.73,-19.64 29.77,-13.08 54.8,-31.74 75.11,-55.96 17.01,-20.28 29.77,-42.88 38.28,-67.74 8.51,-24.88 12.76,-50.72 12.76,-77.57 0,-51.04 -14.24,-97.68 -42.71,-139.89 -28.47,-42.21 -66.92,-69.85 -115.36,-82.95l0.02 0z"/>
  <path id="_3" class="fil2" d="M4910.45 626.32c0,34.03 8.68,64.96 26.01,92.76 17.35,27.83 40.27,49.59 68.74,65.3 28.47,15.69 59.06,23.56 91.78,23.56 34.03,0 68.06,-9.34 102.1,-27.98 34.03,-18.66 62.18,-45.31 84.43,-80 22.25,-34.69 33.39,-74.94 33.39,-120.74l0 -229.73c0,-11.78 5.56,-17.68 16.67,-17.68 5.24,0 9.49,1.64 12.76,4.92 3.27,3.27 4.92,7.52 4.92,12.76l0 465.34c0,4.57 -1.64,8.51 -4.92,11.78 -3.29,3.27 -7.52,4.92 -12.76,4.92 -11.12,0 -16.67,-5.9 -16.67,-17.68l0 -137.44c-9.81,35.99 -26.5,66.43 -50.08,91.29 -23.56,24.88 -50.08,43.37 -79.51,55.47 -29.45,12.1 -58.25,18.17 -86.39,18.17 -38.6,0 -75.11,-8.36 -109.46,-25.05 -34.37,-16.69 -62.18,-41.38 -83.44,-74.12 -21.27,-32.72 -31.89,-71.35 -31.89,-115.85l0 -276.86c0,-11.78 5.56,-17.68 16.69,-17.68 5.24,0 9.49,1.64 12.76,4.92 3.27,3.27 4.92,7.52 4.92,12.76l0 276.86 -0.05 0z"/>
  <path id="_4" class="fil2" d="M5840.16 823.65c-27.49,11.78 -62.18,17.68 -104.05,17.68 -41.89,0 -80,-10.15 -114.37,-30.44 -34.37,-20.28 -59.4,-49.08 -75.11,-86.39l0 283.72c0,11.78 -5.56,17.68 -16.69,17.68 -5.24,0 -9.49,-1.63 -12.76,-4.92 -3.27,-3.27 -4.92,-7.52 -4.92,-12.76l0 -658.73c0,-5.24 1.64,-9.49 4.92,-12.76 3.27,-3.27 7.52,-4.92 12.76,-4.92 11.13,0 16.69,5.9 16.69,17.68l0 94.26c13.08,-35.35 36.98,-64.46 71.67,-87.38 38.6,-22.89 79.19,-34.37 121.73,-34.37 43.86,0 84.92,10.96 123.2,32.89 38.28,21.93 68.89,53.18 91.78,93.77 22.91,40.57 34.37,87.38 34.37,140.39 0,52.37 -13.08,99.99 -39.26,142.84 -26.18,42.88 -62.84,73.46 -109.95,91.8l-0.01 -0.04zm-293.53 -197.33c0,33.39 8.19,63.48 24.56,90.33 16.35,26.83 38.94,48.26 67.74,64.29 28.79,16.03 61.19,24.71 97.19,26.01 45.81,0.64 85.24,-8.85 118.29,-28.47 33.06,-19.64 58.09,-46.15 75.11,-79.51 17.01,-33.39 25.52,-70.68 25.52,-111.92 0,-51.04 -11.46,-93.92 -34.37,-128.61 -22.91,-34.69 -50.87,-60.36 -83.94,-77.06 -33.05,-16.69 -64.63,-25.05 -94.73,-25.05 -34.05,0 -65.94,7.2 -95.71,21.61 -29.77,14.41 -53.82,35.5 -72.16,63.31 -18.32,27.83 -27.49,61.02 -27.49,99.65l0 85.41 -0.01 0.01z"/>
  <g id="_1963818797968">
   <path class="fil2" d="M3127.98 191.86c0.08,-8.24 6.77,-14.86 14.95,-14.78 8.19,0.08 14.76,6.81 14.71,15.05l-29.66 -0.26 0 -0.01zm-7.02 830.66l7.01 -830.67 29.66 0.26 -7.01 830.67 -29.66 -0.26zm29.66 0.27c-0.08,8.24 -6.77,14.86 -14.95,14.78 -8.19,-0.08 -14.76,-6.81 -14.71,-15.05l29.66 0.26 0 0.01z"/>
  </g>
 </g>
</svg>
